<svg xmlns="http://www.w3.org/2000/svg" viewBox="0 0 48 48">
  <!-- Chest base (brown) with rounded corners -->
  <rect x="9" y="18" width="30" height="18" rx="2" ry="2" fill="#8B4513"/>
  
  <!-- Chest top (darker brown) - open lid with rounded corners -->
  <g transform="rotate(-10, 9, 14)">
    <rect x="9" y="12" width="30" height="6" rx="2" ry="2" fill="#6B3301"/>
  </g>
  
  <!-- Gold trim on chest -->
  <rect x="9" y="18" width="30" height="2" fill="#DAA520"/>
  <rect x="9" y="34" width="30" height="2" fill="#DAA520"/>
  
  <!-- Vertical gold trim -->
  <rect x="9" y="12" width="2" height="24" fill="#DAA520"/>
  <rect x="37" y="12" width="2" height="24" fill="#DAA520"/>
  
  <!-- Photos/Images popping out of the chest with rounded corners -->
  <!-- Polaroid-style photo 1 -->
  <g transform="rotate(-5, 12, 14)">
    <rect x="12" y="14" width="10" height="8" rx="1" ry="1" fill="#FFFFFF"/>
    <rect x="13" y="15" width="8" height="6" rx="0.5" ry="0.5" fill="#3498db"/>
  </g>
  
  <!-- Polaroid-style photo 2 -->
  <g transform="rotate(10, 24, 12)">
    <rect x="24" y="12" width="9" height="7" rx="1" ry="1" fill="#FFFFFF"/>
    <rect x="25" y="13" width="7" height="5" rx="0.5" ry="0.5" fill="#e74c3c"/>
  </g>
  
  <!-- Film strip with rounded corners -->
  <rect x="18" y="17" width="12" height="3" rx="0.5" ry="0.5" fill="#333333"/>
  <rect x="19" y="18" width="2" height="1" fill="#FFFFFF"/>
  <rect x="23" y="18" width="2" height="1" fill="#FFFFFF"/>
  <rect x="27" y="18" width="2" height="1" fill="#FFFFFF"/>
  
  <!-- Pictures in the chest with rounded corners -->
  <rect x="12" y="22" width="8" height="6" rx="1" ry="1" fill="#FFFFFF"/>
  <rect x="13" y="23" width="6" height="4" rx="0.5" ry="0.5" fill="#2ecc71"/>
  
  <rect x="22" y="24" width="8" height="6" rx="1" ry="1" fill="#FFFFFF"/>
  <rect x="23" y="25" width="6" height="4" rx="0.5" ry="0.5" fill="#9b59b6"/>
  
  <rect x="32" y="21" width="8" height="6" rx="1" ry="1" fill="#FFFFFF"/>
  <rect x="33" y="22" width="6" height="4" rx="0.5" ry="0.5" fill="#f1c40f"/>
  
  <!-- Digital camera peeking out with rounded corners -->
  <rect x="16" y="28" width="6" height="4" rx="0.5" ry="0.5" fill="#444444"/>
  <rect x="17" y="29" width="2" height="2" rx="0.5" ry="0.5" fill="#55AAEE"/>
  <rect x="20" y="29" width="1" height="2" fill="#222222"/>
  
  <!-- Sparkle highlights -->
  <rect x="14" y="24" width="1" height="1" fill="#FFFFFF"/>
  <rect x="29" y="27" width="1" height="1" fill="#FFFFFF"/>
  <rect x="34" y="19" width="1" height="1" fill="#FFFFFF"/>
</svg>