<svg xmlns="http://www.w3.org/2000/svg" viewBox="0 0 48 48">
  <!-- Background glow -->
  <defs>
    <radialGradient id="glow" cx="24" cy="24" r="24" gradientUnits="userSpaceOnUse">
      <stop offset="0%" stop-color="#ffcc00" stop-opacity="0.4"/>
      <stop offset="100%" stop-color="#ff9900" stop-opacity="0"/>
    </radialGradient>
    <filter id="shadow" x="-20%" y="-20%" width="140%" height="140%">
      <feGaussianBlur in="SourceGraphic" stdDeviation="0.3"/>
    </filter>
  </defs>
  
  <!-- Glowing background -->
  <circle cx="24" cy="24" r="22" fill="url(#glow)"/>
  
  <!-- Chest base with rounded corners -->
  <rect x="10" y="20" width="28" height="16" rx="4" ry="4" fill="#8B4513"/>
  
  <!-- Chest lid with rounded corners -->
  <g transform="rotate(-10, 10, 16)">
    <rect x="10" y="14" width="28" height="6" rx="3" ry="3" fill="#6B3301"/>
  </g>
  
  <!-- Gold trim with rounded corners -->
  <rect x="10" y="20" width="28" height="2" rx="1" ry="1" fill="#DAA520"/>
  <rect x="10" y="34" width="28" height="2" rx="1" ry="1" fill="#DAA520"/>
  <rect x="10" y="14" width="2" height="22" rx="1" ry="1" fill="#DAA520"/>
  <rect x="36" y="14" width="2" height="22" rx="1" ry="1" fill="#DAA520"/>
  
  <!-- Lock -->
  <rect x="22" y="18" width="4" height="6" rx="2" ry="2" fill="#DAA520"/>
  
  <!-- Photos with rounded corners and shadows -->
  <g filter="url(#shadow)">
    <!-- Photo 1 -->
    <g transform="rotate(-15, 13, 16)">
      <rect x="13" y="16" width="8" height="6" rx="1.5" ry="1.5" fill="#FFFFFF"/>
      <rect x="14" y="17" width="6" height="4" rx="1" ry="1" fill="#3498db"/>
    </g>
    
    <!-- Photo 2 -->
    <g transform="rotate(10, 27, 15)">
      <rect x="27" y="15" width="8" height="6" rx="1.5" ry="1.5" fill="#FFFFFF"/>
      <rect x="28" y="16" width="6" height="4" rx="1" ry="1" fill="#e74c3c"/>
    </g>
    
    <!-- Photos in chest -->
    <rect x="13" y="24" width="7" height="5" rx="1.5" ry="1.5" fill="#FFFFFF"/>
    <rect x="14" y="25" width="5" height="3" rx="1" ry="1" fill="#2ecc71"/>
    
    <rect x="21" y="26" width="7" height="5" rx="1.5" ry="1.5" fill="#FFFFFF"/>
    <rect x="22" y="27" width="5" height="3" rx="1" ry="1" fill="#9b59b6"/>
    
    <rect x="29" y="23" width="7" height="5" rx="1.5" ry="1.5" fill="#FFFFFF"/>
    <rect x="30" y="24" width="5" height="3" rx="1" ry="1" fill="#f1c40f"/>
  </g>
  
  <!-- Sparkles -->
  <circle cx="15" cy="22" r="0.5" fill="#FFFFFF" opacity="0.8"/>
  <circle cx="33" cy="25" r="0.5" fill="#FFFFFF" opacity="0.8"/>
  <circle cx="24" cy="17" r="0.5" fill="#FFFFFF" opacity="0.8"/>
  <circle cx="19" cy="28" r="0.5" fill="#FFFFFF" opacity="0.8"/>
</svg> 